<?xml version="1.0" encoding="UTF-8"?>
<!DOCTYPE svg PUBLIC "-//W3C//DTD SVG 1.1//EN" "http://www.w3.org/Graphics/SVG/1.1/DTD/svg11.dtd">
<!-- Creator: CorelDRAW X6 -->
<svg xmlns="http://www.w3.org/2000/svg" xml:space="preserve" width="2.916in" height="0.625in" version="1.1" style="shape-rendering:geometricPrecision; text-rendering:geometricPrecision; image-rendering:optimizeQuality; fill-rule:evenodd; clip-rule:evenodd"
viewBox="0 0 2916 625"
 xmlns:xlink="http://www.w3.org/1999/xlink">
 <defs>
  <style type="text/css">
   <![CDATA[
    .fil2 {fill:#00B0F0;fill-rule:nonzero}
    .fil0 {fill:#7F7F7F;fill-rule:nonzero}
    .fil1 {fill:#FC5910;fill-rule:nonzero}
   ]]>
  </style>
 </defs>
 <g id="Layer_x0020_1">
  <metadata id="CorelCorpID_0Corel-Layer"/>
  <g id="_343264680">
   <g>
    <path class="fil0" d="M4 368l55 -337 70 0 60 163c7,21 12,37 15,47 2,10 4,22 4,37 0,-21 2,-37 6,-49 1,-2 5,-14 13,-35l60 -163 69 0 56 337 -68 0 -28 -178c-1,-4 -1,-11 -2,-20 -1,-9 -1,-17 -1,-24l1 -26 -11 45 -7 24 -65 178 -43 0 -65 -179c-1,-2 -3,-6 -4,-11 -1,-5 -3,-9 -4,-13 -2,-8 -5,-15 -6,-22 -2,-7 -4,-14 -5,-23l1 26c0,7 0,14 -1,23 -1,9 -1,16 -2,21l-28 179 -68 0zm390 -220l74 0 43 101c4,10 7,18 8,24 2,7 2,15 2,26 0,-9 0,-17 1,-22 1,-5 2,-10 5,-15l6 -14 40 -101 73 0 -142 336 -73 0 58 -132 -95 -204z"/>
    <path class="fil1" d="M655 368l0 -337 67 0 0 337 -67 0zm103 -110c0,-34 12,-62 35,-85 23,-23 52,-35 86,-35 35,0 65,11 88,34 24,23 35,51 35,85 0,34 -12,62 -35,85 -23,23 -52,34 -87,34 -35,0 -64,-11 -87,-34 -24,-23 -36,-51 -36,-84zm123 -58c-16,0 -29,6 -40,17 -11,11 -16,25 -16,41 0,17 5,30 16,42 11,11 24,17 41,17 16,0 29,-6 39,-17 11,-11 16,-25 16,-42 0,-17 -5,-30 -16,-41 -11,-11 -24,-17 -40,-17zm326 -20l0 -32 66 0 0 220 -66 0 0 -35c-6,13 -16,23 -29,30 -13,7 -28,10 -46,10 -31,0 -56,-11 -75,-32 -20,-21 -29,-48 -29,-82 0,-34 10,-62 30,-85 20,-23 45,-34 75,-34 16,0 30,3 44,10 13,7 23,16 30,28zm-55 18c-16,0 -29,6 -40,17 -11,11 -16,26 -16,43 0,17 5,32 15,43 10,11 24,16 40,16 16,0 30,-6 40,-17 11,-11 16,-25 16,-42 0,-17 -5,-31 -16,-42 -11,-11 -24,-17 -40,-17zm170 170l0 -220 67 0 -1 34c16,-26 39,-39 70,-39 10,0 20,1 29,4 9,3 17,7 24,13 9,7 16,16 20,27 4,10 6,24 6,42l0 140 -66 0 0 -120c0,-32 -13,-48 -39,-48 -28,0 -42,16 -42,49l0 119 -66 0z"/>
    <path class="fil2" d="M1752 175l0 -144 66 0 0 337 -65 0 0 -35 -8 12c-8,8 -18,15 -30,20 -12,5 -25,7 -39,7 -30,0 -54,-11 -74,-33 -20,-22 -29,-49 -29,-82 0,-33 10,-61 31,-84 20,-23 46,-34 76,-34 31,0 55,12 72,35zm-53 22c-16,0 -29,6 -40,17 -11,12 -16,26 -16,42 0,18 5,32 16,43 10,11 24,17 40,17 16,0 30,-6 40,-17 11,-11 16,-26 16,-43 0,-17 -5,-31 -16,-42 -11,-11 -24,-17 -40,-17zm385 77l-162 0c0,16 5,28 14,37 10,9 22,14 38,14 12,0 21,-2 29,-7 8,-5 15,-13 22,-25l53 24c-21,40 -55,59 -103,59 -37,0 -66,-11 -88,-32 -22,-21 -33,-50 -33,-85 0,-35 11,-64 33,-87 22,-23 50,-34 84,-34 36,0 64,12 83,35 19,23 29,57 29,100zm-113 -87c-13,0 -25,4 -34,13 -9,9 -14,21 -16,35l95 0c0,-15 -4,-27 -12,-36 -8,-9 -19,-13 -33,-13zm125 15l0 -55 25 0 0 -74 67 0 0 74 41 0 0 55 -41 0 0 166 -67 0 0 -166 -25 0zm317 -22l0 -32 66 0 0 220 -66 0 0 -35c-6,13 -16,23 -29,30 -13,7 -28,10 -46,10 -31,0 -56,-11 -75,-32 -20,-21 -29,-48 -29,-82 0,-34 10,-62 30,-85 20,-23 45,-34 75,-34 16,0 30,3 44,10 13,7 23,16 30,28zm-55 18c-16,0 -29,6 -40,17 -11,11 -16,26 -16,43 0,17 5,32 15,43 10,11 24,16 40,16 16,0 30,-6 40,-17 11,-11 16,-25 16,-42 0,-17 -5,-31 -16,-42 -11,-11 -24,-17 -40,-17zm170 170l0 -220 67 0 0 220 -67 0zm-8 -294c0,-11 4,-21 12,-29 8,-8 18,-12 29,-12 12,0 21,4 29,12 8,8 12,17 12,29 0,11 -4,21 -12,29 -8,8 -18,12 -29,12 -12,0 -21,-4 -29,-12 -8,-8 -12,-17 -12,-29zm125 294l0 -337 67 0 0 337 -67 0zm93 -42l50 -27c3,8 7,14 13,19 6,5 13,7 20,7 7,0 13,-2 17,-6 5,-4 7,-9 7,-14 0,-8 -8,-14 -23,-20l-12 -5c-13,-5 -23,-9 -28,-12 -6,-3 -11,-7 -16,-12 -12,-13 -18,-28 -18,-46 0,-21 8,-39 23,-53 15,-14 35,-21 58,-21 36,0 62,15 78,45l-49 23c-6,-12 -14,-19 -25,-19 -6,0 -10,2 -14,6 -4,4 -6,8 -6,14 0,4 1,8 4,11 2,2 5,4 8,5 3,1 7,3 14,6l13 4 9 4c33,12 49,33 49,64 0,22 -8,41 -25,55 -16,14 -37,21 -63,21 -43,0 -71,-17 -85,-50z"/>
   </g>
   <g>
    <path class="fil1" d="M1080 451c0,1 0,1 0,2 0,0 0,1 -1,1 0,0 -1,1 -1,2 0,1 -1,2 -1,3 0,1 -1,3 -1,4 0,1 0,2 -1,3 0,1 0,2 0,3 0,1 0,2 0,3 0,2 0,4 0,6 0,2 0,4 0,7 0,2 0,5 -1,7 0,2 -1,5 -1,8 0,4 -1,8 -1,13 0,5 -1,9 -1,14 0,1 0,3 0,5 0,2 0,4 0,6 0,2 0,4 0,6 0,2 0,4 1,6 0,0 0,0 1,0 0,0 0,0 1,0 2,1 3,2 4,3 1,1 1,2 1,3 0,1 0,2 -1,3 -1,1 -1,2 -2,3 -1,1 -2,2 -4,2 -1,1 -3,1 -4,1 -3,0 -5,-1 -7,-3 -2,-2 -3,-4 -4,-7 -1,-3 -2,-6 -2,-9 0,-3 -1,-7 -1,-10l0 -3c0,-1 0,-3 0,-6 0,-3 1,-6 1,-9 0,-3 1,-7 1,-11 1,-4 1,-8 2,-12 1,-4 1,-7 2,-11 1,-3 1,-6 1,-8 -1,1 -1,2 -2,3 -1,1 -2,3 -3,5 -1,2 -3,3 -4,5 -1,2 -3,4 -4,6 -1,2 -3,3 -4,5 -1,2 -2,3 -3,4 -2,2 -4,5 -5,7 -2,2 -3,5 -5,8 0,0 0,0 -1,1 0,0 -1,1 -1,2 0,1 -1,1 -1,2 0,1 -1,1 -1,1 -3,5 -7,7 -11,9 -3,-1 -5,-2 -6,-3 -2,-1 -3,-2 -4,-3 -1,-1 -2,-2 -3,-4 -1,-1 -2,-3 -2,-4 -1,-2 -2,-3 -3,-4 -1,-1 -1,-3 -2,-4 -1,-2 -2,-5 -4,-7 -1,-2 -2,-5 -3,-8 -1,-2 -1,-4 -2,-6 0,-2 -1,-3 -1,-4 0,-1 -1,-3 -1,-4 0,-1 -1,-3 -1,-5 0,0 0,1 -1,2 0,1 -1,3 -1,5 0,2 -1,4 -1,6 -1,2 -1,5 -2,7 -1,2 -1,5 -2,7 0,2 -1,4 -1,6 0,2 -1,3 -1,5 0,1 0,2 0,2 -1,4 -1,8 -1,11 0,1 0,2 0,3 0,2 0,3 0,5 0,2 0,3 0,5 0,2 0,3 0,4 0,1 0,2 -1,3 0,1 -1,2 -2,3 -1,1 -2,2 -3,3 -1,1 -2,1 -3,1 -2,0 -3,0 -4,0 -1,0 -2,0 -3,-1 -1,0 -2,-1 -2,-2 -1,-1 -1,-2 -2,-3 0,0 0,-1 0,-1 0,-1 0,-1 0,-2 0,-1 0,-2 0,-3 0,-1 0,-3 0,-4 0,-1 0,-2 1,-3 0,-2 1,-4 1,-6 1,-2 1,-5 2,-7 1,-3 1,-5 2,-8 1,-3 1,-5 2,-7 1,-2 1,-4 1,-5 1,-2 1,-5 2,-8 1,-3 1,-5 2,-8 1,-3 1,-5 2,-8 1,-3 1,-5 2,-7 0,-2 1,-4 1,-5 0,-1 1,-3 1,-4 0,-1 1,-3 2,-4 1,-1 2,-2 3,-3 1,-1 2,-1 3,-1 4,0 7,0 9,1 2,1 4,2 6,4 1,2 3,4 3,7 1,3 2,6 3,10 0,1 1,2 1,3 0,1 1,2 1,3 2,5 4,10 6,15 2,5 5,10 8,15 1,-1 2,-2 3,-4 1,-2 2,-3 3,-6 1,-2 2,-4 3,-6 1,-2 2,-3 4,-5 1,-1 1,-2 3,-3 1,-1 2,-3 4,-5 2,-2 3,-4 5,-6 2,-2 3,-4 5,-6 2,-2 3,-4 4,-5 1,-1 2,-3 2,-3 1,-1 1,-1 1,-1 0,0 1,-1 1,-1 1,-1 1,-2 3,-4 1,-2 2,-3 4,-5 1,-2 3,-3 4,-5 1,-2 2,-3 3,-4 1,-1 2,-2 4,-2 1,0 2,0 3,1 1,1 2,1 3,2 1,1 2,2 2,3 1,1 1,2 1,3l0 0zm65 51c0,0 0,-1 0,-2 0,-1 0,-1 -1,-2 0,-1 -1,-1 -1,-1 0,0 -1,-1 -1,-1 -3,0 -6,1 -9,3 -3,2 -5,4 -8,7 -2,2 -3,4 -5,6 -2,3 -3,6 -5,9 -2,3 -3,6 -4,9 -1,3 -2,6 -2,8 0,1 0,1 0,2 0,1 0,1 0,1 0,0 1,1 1,1 0,0 1,0 2,0 2,0 4,-1 6,-2 2,-1 5,-3 7,-5 2,-2 5,-4 7,-7 2,-2 4,-5 6,-8 2,-3 3,-7 5,-10 1,-3 2,-7 2,-11zm66 7c0,1 0,1 0,2 0,1 0,2 -1,2 0,1 -1,2 -1,2 0,1 -1,1 -1,2 0,0 -1,1 -1,1 -1,1 -1,1 -2,2 -1,1 -1,2 -2,2 -1,1 -2,2 -3,3 -3,3 -6,5 -8,8 -3,3 -6,5 -9,7 -3,2 -6,4 -10,5 -3,1 -7,2 -11,2 -2,0 -3,0 -5,-1 -2,-1 -3,-2 -5,-3 -1,-1 -3,-3 -4,-5 -1,-2 -2,-4 -2,-6 -1,1 -2,3 -3,5 -1,2 -3,3 -5,5 -2,2 -3,3 -5,5 -2,1 -3,3 -5,4 -1,1 -2,1 -4,2 -2,1 -3,1 -5,2 -2,1 -3,1 -5,2 -2,0 -3,1 -5,1 -2,0 -4,-1 -6,-2 -2,-1 -3,-3 -4,-5 -1,-2 -2,-4 -3,-6 -1,-2 -1,-4 -1,-6 0,-3 0,-6 1,-10 1,-3 2,-6 4,-10 1,-3 3,-6 5,-9 2,-3 4,-5 5,-8 2,-2 4,-5 7,-7 3,-2 5,-4 8,-6 3,-2 6,-3 8,-4 3,-1 5,-2 7,-2 1,0 2,0 4,0 1,0 2,0 4,0 1,0 2,0 3,1 1,0 2,1 3,1 1,0 1,1 2,2 1,1 1,2 2,3 1,1 1,2 2,3 0,1 1,2 1,3 0,1 0,3 -1,5 0,2 -1,4 -1,6 -1,2 -1,4 -1,6 0,2 -1,4 -1,6 0,1 0,3 1,4 0,1 1,3 2,4 1,1 2,2 3,3 1,1 2,1 3,1 3,0 6,-1 8,-2 3,-1 6,-3 8,-4 3,-2 6,-4 8,-7 3,-3 6,-5 8,-8 0,0 0,0 1,-1 1,-1 1,-2 2,-2 1,-1 2,-2 3,-2 1,-1 2,-1 3,-1 1,0 2,0 3,1 0,1 1,2 1,4zm92 17c0,1 -1,2 -2,3 -1,2 -3,4 -5,6 -2,2 -5,5 -8,7 -3,3 -6,5 -9,7 -3,2 -6,4 -10,5 -3,1 -6,2 -9,2 -2,0 -4,0 -6,-1 -2,-1 -4,-1 -5,-2 -2,-1 -3,-2 -5,-3 -2,-1 -3,-2 -5,-4 -1,-1 -3,-3 -4,-4 -1,-1 -3,-3 -4,-4 -1,-1 -3,-3 -4,-4 -1,-1 -2,-2 -3,-3 -2,2 -3,3 -4,5 -1,1 -2,2 -3,3 -1,1 -1,2 -1,3 0,1 0,2 0,4 0,2 0,4 0,6 0,2 -1,3 -1,4 -1,1 -2,2 -3,2 -1,0 -3,1 -5,1 -1,0 -3,0 -3,0 -1,0 -2,-1 -2,-1 0,-1 -1,-1 -1,-2 0,-1 0,-2 0,-3 0,-1 0,-3 0,-4 0,-2 0,-3 1,-5 0,-2 0,-3 1,-5 0,-2 0,-3 1,-4 0,0 0,-1 0,-2 0,-1 0,-3 1,-5 0,-2 1,-4 1,-7 0,-3 1,-5 1,-8 0,-3 1,-5 1,-8 0,-2 1,-5 1,-7 0,-2 0,-4 1,-5 0,-1 0,-2 0,-2 0,-3 1,-6 1,-9 0,-3 1,-6 1,-9 0,-3 1,-6 1,-9 0,-3 0,-6 1,-8 0,-1 0,-2 1,-4 0,-1 1,-2 2,-3 1,-1 2,-2 3,-2 1,-1 2,-1 4,-1 2,0 4,0 5,1 1,1 2,1 3,2 1,1 1,2 1,3 0,1 0,2 0,2 0,1 0,2 0,4 0,2 0,3 -1,5 0,2 -1,4 -1,6 0,2 -1,4 -1,6 0,2 -1,3 -1,5 0,1 0,2 0,3 -1,6 -2,10 -2,13 -1,3 -1,6 -1,8 0,3 -1,5 -1,6 0,2 -1,3 -1,5 0,1 0,2 0,3 0,1 0,2 -1,3 2,-2 3,-4 5,-6 2,-2 3,-4 5,-6 2,-2 3,-4 5,-6 2,-2 3,-4 4,-5 1,-2 2,-3 4,-5 2,-2 3,-4 5,-6 2,-2 4,-3 6,-5 2,-1 5,-2 7,-2 1,0 3,0 3,1 1,0 2,1 2,2 1,1 1,2 1,2 0,1 0,2 0,2 0,1 -1,3 -2,4 -1,2 -2,3 -4,5 -2,2 -3,3 -5,5 -2,2 -3,3 -5,4 -4,3 -7,7 -9,9 -3,3 -5,6 -7,8 1,1 3,2 4,3 1,1 3,3 5,4 2,1 3,3 5,4 2,1 3,3 5,4 2,1 3,2 4,3 1,1 2,1 3,1 1,0 2,1 3,1 1,0 2,0 3,0 1,0 3,0 5,-1 2,-1 3,-1 5,-2 2,-1 4,-2 5,-3 2,-1 4,-2 5,-4 2,-1 3,-3 5,-4 1,-1 3,-2 4,-3 1,-1 2,-2 3,-3 1,-1 2,-1 3,-1 1,0 1,0 2,1 0,0 1,1 1,1 0,1 0,1 1,2 0,0 0,1 0,1zm33 -32c0,-1 0,-2 0,-3 0,-1 -1,-2 -1,-2 -2,0 -3,1 -5,2 -2,1 -4,3 -5,6 -2,3 -3,6 -5,9 -1,4 -2,8 -3,12 2,-2 5,-3 7,-5 2,-2 4,-4 6,-6 2,-2 3,-4 5,-6 1,-2 2,-5 2,-7zm56 13c0,1 -1,2 -2,5 -3,4 -5,7 -8,11 -3,4 -6,7 -10,10 -3,3 -7,6 -11,9 -4,3 -8,5 -11,7 -4,2 -8,4 -11,5 -4,1 -8,2 -11,2 -8,0 -15,-2 -19,-7 -5,-5 -7,-12 -7,-21 0,-4 0,-7 1,-11 1,-4 1,-7 3,-11 1,-4 3,-7 5,-10 2,-3 4,-7 7,-10 1,-1 2,-2 4,-3 1,-1 3,-2 5,-3 2,-1 3,-2 5,-2 2,-1 3,-1 5,-1 3,0 5,0 7,1 2,1 3,2 5,4 1,2 2,3 3,6 1,2 1,4 1,7 0,4 -2,9 -5,13 -3,5 -8,9 -13,14 -2,2 -4,3 -6,5 -2,2 -5,4 -8,6 0,1 0,2 1,3 1,1 1,2 2,3 1,1 2,1 4,2 1,0 3,1 5,1 2,0 5,0 8,-1 3,-1 5,-1 8,-2 3,-1 5,-2 8,-3 2,-1 5,-3 7,-4 4,-3 7,-5 10,-8 3,-3 6,-6 10,-9l4 -4c3,-2 5,-4 7,-4 1,0 2,0 2,1 0,1 1,1 1,2zm63 -2c0,1 -1,3 -2,5 -1,2 -3,4 -4,6 -2,2 -4,4 -6,7 -2,2 -4,4 -6,6 -1,1 -3,3 -5,5 -2,2 -5,4 -8,7 -3,2 -6,5 -9,8 -3,3 -6,5 -9,7 -3,2 -5,4 -7,6 -2,2 -4,3 -5,3 -3,2 -6,3 -8,5 -3,1 -5,2 -7,2 -2,0 -3,0 -4,0 -1,0 -2,-1 -3,-1 -1,-1 -1,-1 -2,-2 0,-1 -1,-1 -1,-2 0,-2 0,-3 1,-5 1,-1 2,-3 3,-4 1,-1 3,-2 5,-3 2,-1 4,-2 7,-3 2,-1 3,-1 5,-2 1,-1 3,-1 4,-2 1,-1 2,-2 2,-3 1,-1 1,-2 1,-4 0,0 0,-1 -1,-2 0,-1 -1,-2 -2,-3 -1,-1 -2,-3 -2,-4 -1,-1 -2,-3 -3,-4 -1,-1 -2,-3 -2,-4 -1,-1 -1,-2 -2,-3 -2,-4 -3,-7 -3,-11 0,-2 0,-3 0,-5 0,-2 1,-3 1,-5 1,-2 2,-4 3,-6 1,-2 3,-4 5,-6 2,-2 3,-3 5,-4 2,-1 3,-2 5,-2 2,0 3,0 4,0 1,0 2,1 3,1 1,1 1,1 1,2 0,1 0,2 0,4 0,1 0,2 -1,3 -1,1 -1,2 -2,3 -1,1 -2,2 -3,3 -1,1 -2,2 -2,2 -1,1 -2,2 -3,3 -1,1 -2,1 -2,2 0,3 1,6 2,8 1,1 2,3 3,5 1,2 2,4 3,6 1,2 2,4 3,5 1,2 2,3 2,4 1,0 2,-1 3,-2 1,-1 3,-2 5,-3 2,-1 4,-3 6,-4 2,-2 4,-3 6,-5 2,-2 4,-3 6,-5 2,-2 4,-3 5,-5 1,-1 2,-2 3,-3 1,-1 2,-2 2,-2 1,-1 1,-1 2,-1 0,0 1,0 2,0 1,0 1,0 2,1 0,0 1,1 1,2 0,1 0,1 0,2 0,0 0,1 0,1z"/>
    <path class="fil1" d="M1574 494c0,1 0,3 0,4 0,2 0,4 0,6 0,2 0,4 -1,6 0,2 0,4 0,5 0,3 0,6 -1,10 0,3 -1,7 -1,10 -1,3 -1,7 -2,10 -1,3 -1,6 -2,9 -1,2 -1,5 -2,7 -1,2 -2,5 -3,7 -1,2 -2,5 -3,7 -1,2 -2,4 -3,6 -5,8 -12,12 -22,12 -6,0 -12,-1 -18,-3 -2,-1 -4,-2 -6,-3 -2,-1 -4,-3 -6,-4 -2,-1 -3,-3 -4,-4 -1,-1 -2,-3 -2,-4 0,-1 0,-2 0,-3 0,-1 0,-2 1,-2 0,-1 1,-1 2,-2 1,0 2,-1 3,-1 1,0 1,0 2,0 1,0 1,1 2,1 2,2 4,4 6,5 2,1 4,2 6,3 2,1 4,2 7,2 2,0 5,1 8,1 2,0 3,0 5,-1 1,-1 3,-2 4,-4 1,-2 2,-4 3,-6 1,-2 2,-4 3,-7 1,-2 2,-5 2,-7 1,-2 1,-5 2,-7 1,-2 1,-5 1,-7 0,-2 1,-5 1,-8 -1,1 -3,3 -5,4 -2,1 -4,3 -6,4 -2,1 -4,3 -7,4 -2,1 -5,2 -7,3 -2,1 -4,2 -6,2 -2,1 -4,1 -6,1 -3,0 -5,-1 -7,-2 -2,-1 -4,-3 -5,-4 -1,-2 -2,-4 -3,-6 -1,-2 -1,-5 -1,-7 0,-2 0,-3 0,-5 0,-2 1,-4 1,-6 0,-2 1,-4 1,-6 0,-2 1,-4 1,-5 0,0 0,-1 1,-2 0,-1 1,-2 1,-4 0,-1 1,-3 1,-4 0,-1 1,-2 1,-2 1,-2 1,-3 2,-5 1,-1 1,-2 2,-3 1,-1 2,-2 3,-2 1,0 3,-1 5,-1 1,0 2,0 3,1 1,1 2,1 2,3 1,1 1,2 1,3 0,1 0,2 0,3 0,0 0,1 -1,2 -1,1 -1,3 -2,4 -1,1 -1,3 -2,4 -1,1 -1,2 -1,2 -1,4 -3,7 -4,9 -1,3 -1,6 -1,8 0,1 0,3 0,4 0,1 1,2 1,3 0,1 1,2 1,2 1,0 1,1 2,1 2,0 3,0 6,-1 2,-1 4,-1 7,-3 2,-1 5,-2 7,-4 2,-1 5,-3 7,-5 2,-2 4,-4 5,-6 1,-2 2,-4 3,-6 0,0 0,-1 0,-2 0,-1 0,-2 0,-4 0,-1 0,-3 0,-4 0,-2 0,-3 0,-4 0,-1 0,-3 0,-4 0,-1 0,-2 0,-3 1,-3 2,-5 3,-6 1,-1 3,-2 5,-2 2,0 3,0 4,1 1,0 2,1 3,2 1,1 1,2 1,3 0,1 0,3 0,5zm65 20c0,-1 0,-2 0,-4 0,-1 0,-3 -1,-4 0,-1 -1,-2 -2,-3 -1,-1 -2,-1 -3,-2 -2,0 -3,-1 -4,-1 -1,0 -2,-1 -3,-1 -1,0 -1,-1 -1,-1 0,0 0,0 0,0 0,0 -1,0 -2,1 -1,1 -1,1 -2,2 -1,1 -2,2 -3,3 -1,1 -2,2 -3,3 -1,1 -2,2 -3,4 -1,1 -2,2 -3,4 -1,1 -2,3 -2,4 -1,1 -2,3 -3,5 -1,2 -1,3 -2,6 0,2 -1,4 -1,6 0,1 0,2 0,2 0,1 0,2 1,2 0,1 1,1 2,2 1,0 1,1 2,1 2,0 4,0 6,0 1,0 3,-1 4,-1 1,-1 3,-1 4,-2 1,-1 3,-2 5,-3 1,-1 2,-1 3,-2 1,-1 2,-2 3,-3 1,-1 2,-2 3,-3 1,-1 2,-2 2,-3 0,-1 1,-1 1,-2 0,-1 0,-2 1,-3 0,-1 0,-2 0,-3 0,-1 0,-1 0,-2l0 0zm56 -16c0,1 0,2 -1,3 0,1 -1,2 -1,3 -1,1 -1,2 -2,2 -1,1 -2,1 -2,2 -2,1 -4,2 -8,3 -3,1 -7,1 -12,1 -1,0 -3,0 -4,0 -2,0 -3,0 -5,-1 -2,0 -3,-1 -5,-1 -2,0 -3,-1 -4,-2 0,0 1,1 1,2 0,1 0,2 0,2 0,1 0,2 0,2 0,1 0,1 0,2 0,3 -1,6 -2,9 -1,3 -3,6 -4,9 -2,3 -4,5 -6,8 -2,2 -5,4 -7,6 -2,1 -4,3 -6,4 -2,1 -5,2 -7,3 -3,1 -5,1 -8,2 -3,0 -5,0 -8,0 -2,0 -4,-1 -6,-2 -2,-1 -4,-3 -5,-4 -2,-2 -3,-4 -4,-6 -1,-2 -1,-4 -1,-7 0,-4 1,-8 2,-11 1,-4 2,-7 4,-10 2,-3 4,-7 6,-10 2,-3 5,-6 7,-9 2,-2 3,-4 5,-5 2,-2 4,-3 6,-5 2,-1 4,-2 6,-3 2,-1 4,-1 6,-1 2,0 3,0 4,1 1,0 2,1 3,2 1,1 2,2 3,3 1,1 2,2 3,3l2 2c0,0 1,1 3,2 2,1 4,2 6,2 2,1 5,1 7,2 3,1 5,1 7,1 2,0 4,0 6,0 2,0 4,0 6,-1 2,0 4,-1 6,-1 2,-1 5,-2 7,-3 0,0 0,1 1,2 0,1 0,1 0,2zm112 2c0,3 -1,6 -3,9 -2,3 -4,6 -7,10 -3,3 -6,6 -10,10 -4,3 -8,6 -11,8 -4,2 -7,4 -11,6 -3,1 -6,2 -8,2 -3,0 -6,-1 -8,-2 -2,-1 -4,-3 -5,-5 -1,-2 -3,-5 -3,-8 -1,-3 -1,-6 -2,-9 -1,2 -2,4 -3,6 -1,2 -2,4 -4,6 -1,2 -3,4 -4,6 -1,2 -3,3 -4,5 -2,2 -4,3 -6,5 -2,2 -4,3 -6,4 -2,1 -5,2 -7,3 -3,1 -5,1 -8,1 -2,0 -4,0 -6,-1 -2,-1 -3,-2 -5,-4 -1,-2 -2,-3 -3,-5 -1,-2 -1,-4 -1,-6 0,-2 0,-4 0,-6 0,-2 1,-4 1,-6 0,-2 1,-4 1,-6 0,-2 1,-4 1,-6 0,-1 0,-3 0,-4 0,-2 0,-3 0,-5 0,-2 0,-3 0,-5 0,-2 0,-3 1,-5 0,-1 0,-2 1,-3 0,-1 1,-2 2,-2 1,-1 2,-1 3,-2 1,0 2,-1 4,-1 3,0 5,1 6,3 1,2 2,5 2,8 0,1 0,2 0,4 0,1 0,3 -1,5 0,2 -1,3 -1,5 0,2 -1,3 -1,5 -1,3 -2,6 -2,9 -1,3 -1,6 -1,8 0,2 0,3 1,4 1,1 1,2 2,2 2,0 4,-1 6,-2 2,-1 4,-3 7,-5 2,-2 4,-4 6,-6 2,-2 4,-4 5,-6 1,-2 3,-4 4,-6 1,-3 3,-5 4,-8 1,-3 2,-6 4,-8 1,-3 2,-5 3,-7 1,-3 3,-5 4,-7 2,-2 3,-2 5,-2 2,0 3,0 4,1 1,1 1,2 1,4 0,1 0,2 0,4 0,2 0,3 -1,5 0,2 0,3 -1,5 0,2 0,3 0,4 0,1 0,2 0,3 0,1 0,2 0,3 0,1 0,2 0,3 0,1 0,2 0,3 0,1 1,2 1,3 0,1 1,3 2,4 1,1 1,2 2,3 1,1 2,1 2,1 3,0 5,-1 8,-2 3,-1 6,-3 9,-5 3,-2 6,-4 9,-7 3,-3 6,-5 9,-8 1,-1 2,-2 3,-3 1,-1 2,-2 3,-3 1,-1 2,-2 3,-2 1,-1 2,-1 2,-1 1,0 1,0 2,1 0,0 1,1 1,1zm56 0c0,0 0,1 0,2 0,1 0,1 -1,2 0,1 -1,1 -1,2 -1,1 -1,1 -2,1 0,0 -1,0 -1,0 -1,0 -1,0 -2,0 -1,0 -1,0 -2,0 -1,0 -1,0 -1,0 -8,0 -15,3 -21,9 -1,1 -3,3 -4,4 -1,2 -3,3 -4,5 -1,2 -3,4 -4,6 -1,2 -2,5 -3,7 -1,2 -2,4 -2,6 -1,2 -1,4 -2,7 0,1 -1,2 -1,3 0,1 0,2 -1,3 0,1 -1,1 -1,2 -1,1 -1,1 -2,1 -1,0 -2,1 -2,1 -1,0 -2,0 -2,0 -3,0 -5,-1 -6,-4 -1,-3 -2,-7 -2,-12 0,-1 0,-2 0,-4 0,-1 0,-2 0,-3 0,-1 0,-2 0,-4 0,-1 0,-3 0,-4 0,-2 0,-5 1,-8 0,-3 1,-6 1,-9 0,-3 1,-6 1,-9 0,-3 1,-6 1,-8 1,-3 2,-5 3,-6 1,-1 3,-2 6,-2 1,0 2,0 2,1 1,0 2,1 2,1 1,1 1,1 2,2 0,1 1,1 1,2l0 1c0,1 0,3 0,5 0,2 -1,4 -1,6 0,2 -1,4 -1,6 0,2 -1,4 -1,6 0,2 -1,4 -1,5 0,2 -1,3 -1,4 2,-4 3,-7 5,-10 2,-3 4,-6 6,-9 2,-3 5,-5 7,-8 3,-2 5,-4 8,-5 2,-1 4,-2 6,-2 2,-1 4,-1 5,-1 2,0 4,0 6,1 2,0 4,1 5,2 2,1 3,2 4,3 1,1 2,2 2,4zm139 5c0,1 -1,3 -2,5 -1,2 -3,4 -4,6 -2,2 -4,4 -6,7 -2,2 -4,4 -6,6 -1,1 -3,3 -5,5 -2,2 -5,4 -8,7 -3,2 -6,5 -9,8 -3,3 -6,5 -9,7 -3,2 -5,4 -7,6 -2,2 -4,3 -5,3 -3,2 -6,3 -8,5 -3,1 -5,2 -7,2 -2,0 -3,0 -4,0 -1,0 -2,-1 -3,-1 -1,-1 -1,-1 -2,-2 0,-1 -1,-1 -1,-2 0,-2 0,-3 1,-5 1,-1 2,-3 3,-4 1,-1 3,-2 5,-3 2,-1 4,-2 7,-3 2,-1 3,-1 5,-2 1,-1 3,-1 4,-2 1,-1 2,-2 2,-3 1,-1 1,-2 1,-4 0,0 0,-1 -1,-2 0,-1 -1,-2 -2,-3 -1,-1 -2,-3 -2,-4 -1,-1 -2,-3 -3,-4 -1,-1 -2,-3 -2,-4 -1,-1 -1,-2 -2,-3 -2,-4 -3,-7 -3,-11 0,-2 0,-3 0,-5 0,-2 1,-3 1,-5 1,-2 2,-4 3,-6 1,-2 3,-4 5,-6 2,-2 3,-3 5,-4 2,-1 3,-2 5,-2 2,0 3,0 4,0 1,0 2,1 3,1 1,1 1,1 1,2 0,1 0,2 0,4 0,1 0,2 -1,3 -1,1 -1,2 -2,3 -1,1 -2,2 -3,3 -1,1 -2,2 -2,2 -1,1 -2,2 -3,3 -1,1 -2,1 -2,2 0,3 1,6 2,8 1,1 2,3 3,5 1,2 2,4 3,6 1,2 2,4 3,5 1,2 2,3 2,4 1,0 2,-1 3,-2 1,-1 3,-2 5,-3 2,-1 4,-3 6,-4 2,-2 4,-3 6,-5 2,-2 4,-3 6,-5 2,-2 4,-3 5,-5 1,-1 2,-2 3,-3 1,-1 2,-2 2,-2 1,-1 1,-1 2,-1 0,0 1,0 2,0 1,0 1,0 2,1 0,0 1,1 1,2 0,1 0,1 0,2 0,0 0,1 0,1zm20 -11c0,-1 0,-2 0,-3 0,-1 -1,-2 -1,-2 -2,0 -3,1 -5,2 -2,1 -4,3 -5,6 -2,3 -3,6 -5,9 -1,4 -2,8 -3,12 2,-2 5,-3 7,-5 2,-2 4,-4 6,-6 2,-2 3,-4 5,-6 1,-2 2,-5 2,-7zm56 13c0,1 -1,2 -2,5 -3,4 -5,7 -8,11 -3,4 -6,7 -10,10 -3,3 -7,6 -11,9 -4,3 -8,5 -11,7 -4,2 -8,4 -11,5 -4,1 -8,2 -11,2 -8,0 -15,-2 -19,-7 -5,-5 -7,-12 -7,-21 0,-4 0,-7 1,-11 1,-4 1,-7 3,-11 1,-4 3,-7 5,-10 2,-3 4,-7 7,-10 1,-1 2,-2 4,-3 1,-1 3,-2 5,-3 2,-1 3,-2 5,-2 2,-1 3,-1 5,-1 3,0 5,0 7,1 2,1 3,2 5,4 1,2 2,3 3,6 1,2 1,4 1,7 0,4 -2,9 -5,13 -3,5 -8,9 -13,14 -2,2 -4,3 -6,5 -2,2 -5,4 -8,6 0,1 0,2 1,3 1,1 1,2 2,3 1,1 2,1 4,2 1,0 3,1 5,1 2,0 5,0 8,-1 3,-1 5,-1 8,-2 3,-1 5,-2 8,-3 2,-1 5,-3 7,-4 4,-3 7,-5 10,-8 3,-3 6,-6 10,-9l4 -4c3,-2 5,-4 7,-4 1,0 2,0 2,1 0,1 1,1 1,2zm30 -6c0,0 0,-1 0,-2 0,-1 0,-1 -1,-2 0,-1 -1,-1 -1,-1 0,0 -1,-1 -1,-1 -3,0 -6,1 -9,3 -3,2 -5,4 -8,7 -2,2 -3,4 -5,6 -2,3 -3,6 -5,9 -2,3 -3,6 -4,9 -1,3 -2,6 -2,8 0,1 0,1 0,2 0,1 0,1 0,1 0,0 1,1 1,1 0,0 1,0 2,0 2,0 4,-1 6,-2 2,-1 5,-3 7,-5 2,-2 5,-4 7,-7 2,-2 4,-5 6,-8 2,-3 3,-7 5,-10 1,-3 2,-7 2,-11zm66 7c0,1 0,1 0,2 0,1 0,2 -1,2 0,1 -1,2 -1,2 0,1 -1,1 -1,2 0,0 -1,1 -1,1 -1,1 -1,1 -2,2 -1,1 -1,2 -2,2 -1,1 -2,2 -3,3 -3,3 -6,5 -8,8 -3,3 -6,5 -9,7 -3,2 -6,4 -10,5 -3,1 -7,2 -11,2 -2,0 -3,0 -5,-1 -2,-1 -3,-2 -5,-3 -1,-1 -3,-3 -4,-5 -1,-2 -2,-4 -2,-6 -1,1 -2,3 -3,5 -1,2 -3,3 -5,5 -2,2 -3,3 -5,5 -2,1 -3,3 -5,4 -1,1 -2,1 -4,2 -2,1 -3,1 -5,2 -2,1 -3,1 -5,2 -2,0 -3,1 -5,1 -2,0 -4,-1 -6,-2 -2,-1 -3,-3 -4,-5 -1,-2 -2,-4 -3,-6 -1,-2 -1,-4 -1,-6 0,-3 0,-6 1,-10 1,-3 2,-6 4,-10 1,-3 3,-6 5,-9 2,-3 4,-5 5,-8 2,-2 4,-5 7,-7 3,-2 5,-4 8,-6 3,-2 6,-3 8,-4 3,-1 5,-2 7,-2 1,0 2,0 4,0 1,0 2,0 4,0 1,0 2,0 3,1 1,0 2,1 3,1 1,0 1,1 2,2 1,1 1,2 2,3 1,1 1,2 2,3 0,1 1,2 1,3 0,1 0,3 -1,5 0,2 -1,4 -1,6 -1,2 -1,4 -1,6 0,2 -1,4 -1,6 0,1 0,3 1,4 0,1 1,3 2,4 1,1 2,2 3,3 1,1 2,1 3,1 3,0 6,-1 8,-2 3,-1 6,-3 8,-4 3,-2 6,-4 8,-7 3,-3 6,-5 8,-8 0,0 0,0 1,-1 1,-1 1,-2 2,-2 1,-1 2,-2 3,-2 1,-1 2,-1 3,-1 1,0 2,0 3,1 0,1 1,2 1,4z"/>
    <path class="fil1" d="M2233 500c0,0 0,1 0,2 0,1 0,1 -1,2 0,1 -1,1 -1,2 -1,1 -1,1 -2,1 0,0 -1,0 -1,0 -1,0 -1,0 -2,0 -1,0 -1,0 -2,0 -1,0 -1,0 -1,0 -8,0 -15,3 -21,9 -1,1 -3,3 -4,4 -1,2 -3,3 -4,5 -1,2 -3,4 -4,6 -1,2 -2,5 -3,7 -1,2 -2,4 -2,6 -1,2 -1,4 -2,7 0,1 -1,2 -1,3 0,1 0,2 -1,3 0,1 -1,1 -1,2 -1,1 -1,1 -2,1 -1,0 -2,1 -2,1 -1,0 -2,0 -2,0 -3,0 -5,-1 -6,-4 -1,-3 -2,-7 -2,-12 0,-1 0,-2 0,-4 0,-1 0,-2 0,-3 0,-1 0,-2 0,-4 0,-1 0,-3 0,-4 0,-2 0,-5 1,-8 0,-3 1,-6 1,-9 0,-3 1,-6 1,-9 0,-3 1,-6 1,-8 1,-3 2,-5 3,-6 1,-1 3,-2 6,-2 1,0 2,0 2,1 1,0 2,1 2,1 1,1 1,1 2,2 0,1 1,1 1,2l0 1c0,1 0,3 0,5 0,2 -1,4 -1,6 0,2 -1,4 -1,6 0,2 -1,4 -1,6 0,2 -1,4 -1,5 0,2 -1,3 -1,4 2,-4 3,-7 5,-10 2,-3 4,-6 6,-9 2,-3 5,-5 7,-8 3,-2 5,-4 8,-5 2,-1 4,-2 6,-2 2,-1 4,-1 5,-1 2,0 4,0 6,1 2,0 4,1 5,2 2,1 3,2 4,3 1,1 2,2 2,4zm96 8c0,1 0,2 0,3 0,1 -1,1 -1,2 -1,1 -1,1 -2,2 -1,1 -2,2 -3,3l-6 6c-1,1 -3,2 -4,3 -1,1 -2,2 -3,3 -1,1 -2,2 -3,2 -1,1 -2,2 -4,3 -3,3 -6,5 -9,7 -3,2 -6,4 -9,6 -4,3 -9,5 -14,6 -5,1 -10,2 -16,2 -4,0 -7,-1 -10,-2 -3,-1 -5,-3 -7,-5 -2,-2 -3,-5 -4,-8 -1,-3 -1,-6 -1,-9 0,-6 1,-13 4,-19 3,-6 6,-13 11,-19 1,-2 3,-3 4,-5 2,-2 3,-3 5,-5 2,-1 4,-2 5,-3 2,-1 4,-1 5,-1 1,0 2,0 3,1 1,1 2,2 3,3 1,1 2,2 3,4 1,1 2,3 3,5 2,3 2,6 2,7 0,1 0,2 0,3 0,1 0,2 -1,3 0,1 -1,2 -2,3 -1,1 -2,1 -3,1 -2,0 -3,-1 -4,-2 -1,-1 -2,-2 -3,-4 -1,-2 -1,-3 -2,-4 0,-1 -1,-2 -1,-3 -1,0 -2,1 -4,3 -1,1 -3,3 -4,5 -1,2 -2,4 -4,6 -1,2 -2,5 -3,7 -1,3 -2,5 -2,8 0,3 -1,5 -1,8 0,2 1,5 3,6 2,2 4,3 6,3 5,0 11,-1 16,-3 5,-2 10,-5 15,-8 3,-2 6,-5 10,-8 3,-3 7,-6 11,-10 1,-1 3,-3 5,-4 2,-1 3,-2 4,-3 1,-1 3,-2 4,-2 1,-1 3,-1 4,-1 3,0 4,1 4,4zm115 2c0,1 0,1 -1,2 0,1 -1,2 -2,3 0,1 -1,2 -2,3 -1,1 -2,2 -3,3 -1,1 -2,2 -3,3 -1,1 -2,2 -2,3 -3,3 -6,5 -9,8 -3,3 -6,5 -10,7 -3,2 -7,4 -10,5 -4,1 -7,2 -11,2 -3,0 -6,-1 -9,-2 -2,-1 -4,-3 -6,-6 0,-1 -1,-2 -1,-4 -1,-2 -1,-4 -1,-6 0,-2 -1,-4 -1,-6 0,-2 0,-4 -1,-5 0,-1 0,-2 0,-3 0,-1 0,-2 0,-3 0,-1 0,-2 -1,-3 0,-1 -1,-1 -1,-1 0,0 -1,0 -1,0 -1,0 -2,2 -4,3 -2,2 -4,4 -7,7 -3,3 -5,6 -8,9 -3,4 -6,7 -8,11 -1,1 -2,3 -3,5 -1,2 -2,4 -3,5 -1,2 -2,4 -3,5 -1,2 -2,3 -3,4 -1,1 -1,1 -2,2 -1,1 -1,1 -2,1 -1,0 -1,1 -2,1 -1,0 -1,0 -1,0 -1,0 -2,0 -3,-1 -1,0 -2,-1 -2,-2 -1,-1 -1,-2 -2,-3 0,-1 -1,-2 -1,-3 0,-1 0,-1 0,-3 0,-1 0,-3 1,-5 0,-2 1,-4 1,-5 0,-2 0,-4 1,-5 0,-3 1,-6 1,-10 0,-4 1,-7 1,-11 0,-4 1,-7 1,-11 0,-4 1,-7 1,-10 0,-1 0,-2 0,-4 0,-2 0,-3 0,-5 0,-2 0,-4 0,-6 0,-2 0,-4 0,-6 0,-2 0,-4 0,-5 0,-2 0,-3 0,-4 0,-1 0,-3 0,-4 0,-1 0,-2 1,-3 0,-1 1,-2 1,-3 0,-1 1,-2 2,-4 0,-1 1,-1 1,-2 1,-1 1,-1 2,-2 1,-1 2,-1 2,-1 1,0 2,-1 3,-1 2,0 4,1 5,2 1,1 2,3 2,6 0,1 0,2 0,3 0,1 0,2 -1,4 0,1 0,2 -1,3 0,1 0,2 0,2 0,1 0,2 -1,4 0,2 -1,4 -1,6 0,2 -1,5 -1,8 0,3 -1,6 -1,8 0,3 -1,6 -1,8 0,3 -1,5 -1,7 0,2 0,4 -1,5 0,1 0,2 0,2 0,1 0,2 -1,4 0,2 0,4 -1,5 0,2 0,4 -1,5 0,2 0,3 0,4 0,-1 1,-1 2,-3 1,-1 1,-2 2,-3 1,-1 1,-2 2,-3 1,-1 1,-2 2,-2 1,-1 2,-2 3,-4 1,-1 2,-3 3,-4 1,-2 2,-3 4,-4 1,-1 2,-3 4,-4 1,-2 3,-3 5,-5 2,-2 4,-3 6,-4 2,-1 4,-2 6,-3 2,-1 4,-1 6,-1 1,0 1,0 2,0 1,0 2,1 2,1 1,0 2,1 2,2 1,1 1,1 1,2 1,2 1,4 2,6 0,2 1,5 1,8 0,3 1,5 1,8 0,3 1,5 1,7 0,2 1,4 2,5 1,1 1,2 2,2 1,0 3,0 4,0 1,0 2,0 3,0 1,0 2,-1 3,-1 1,0 2,-1 4,-2 3,-1 5,-3 7,-4 2,-1 4,-2 5,-4 2,-1 3,-3 5,-4 2,-2 4,-3 6,-5 2,-2 5,-4 6,-5 2,-1 3,-2 4,-2 1,0 1,0 1,0 0,0 1,1 1,1 0,0 0,1 0,1 0,0 0,1 0,1zm81 -16c0,-1 0,-2 0,-3 0,-1 -1,-2 -1,-2 -2,0 -3,1 -5,2 -2,1 -4,3 -5,6 -2,3 -3,6 -5,9 -1,4 -2,8 -3,12 2,-2 5,-3 7,-5 2,-2 4,-4 6,-6 2,-2 3,-4 5,-6 1,-2 2,-5 2,-7zm56 13c0,1 -1,2 -2,5 -3,4 -5,7 -8,11 -3,4 -6,7 -10,10 -3,3 -7,6 -11,9 -4,3 -8,5 -11,7 -4,2 -8,4 -11,5 -4,1 -8,2 -11,2 -8,0 -15,-2 -19,-7 -5,-5 -7,-12 -7,-21 0,-4 0,-7 1,-11 1,-4 1,-7 3,-11 1,-4 3,-7 5,-10 2,-3 4,-7 7,-10 1,-1 2,-2 4,-3 1,-1 3,-2 5,-3 2,-1 3,-2 5,-2 2,-1 3,-1 5,-1 3,0 5,0 7,1 2,1 3,2 5,4 1,2 2,3 3,6 1,2 1,4 1,7 0,4 -2,9 -5,13 -3,5 -8,9 -13,14 -2,2 -4,3 -6,5 -2,2 -5,4 -8,6 0,1 0,2 1,3 1,1 1,2 2,3 1,1 2,1 4,2 1,0 3,1 5,1 2,0 5,0 8,-1 3,-1 5,-1 8,-2 3,-1 5,-2 8,-3 2,-1 5,-3 7,-4 4,-3 7,-5 10,-8 3,-3 6,-6 10,-9l4 -4c3,-2 5,-4 7,-4 1,0 2,0 2,1 0,1 1,1 1,2zm30 -6c0,0 0,-1 0,-2 0,-1 0,-1 -1,-2 0,-1 -1,-1 -1,-1 0,0 -1,-1 -1,-1 -3,0 -6,1 -9,3 -3,2 -5,4 -8,7 -2,2 -3,4 -5,6 -2,3 -3,6 -5,9 -2,3 -3,6 -4,9 -1,3 -2,6 -2,8 0,1 0,1 0,2 0,1 0,1 0,1 0,0 1,1 1,1 0,0 1,0 2,0 2,0 4,-1 6,-2 2,-1 5,-3 7,-5 2,-2 5,-4 7,-7 2,-2 4,-5 6,-8 2,-3 3,-7 5,-10 1,-3 2,-7 2,-11zm66 7c0,1 0,1 0,2 0,1 0,2 -1,2 0,1 -1,2 -1,2 0,1 -1,1 -1,2 0,0 -1,1 -1,1 -1,1 -1,1 -2,2 -1,1 -1,2 -2,2 -1,1 -2,2 -3,3 -3,3 -6,5 -8,8 -3,3 -6,5 -9,7 -3,2 -6,4 -10,5 -3,1 -7,2 -11,2 -2,0 -3,0 -5,-1 -2,-1 -3,-2 -5,-3 -1,-1 -3,-3 -4,-5 -1,-2 -2,-4 -2,-6 -1,1 -2,3 -3,5 -1,2 -3,3 -5,5 -2,2 -3,3 -5,5 -2,1 -3,3 -5,4 -1,1 -2,1 -4,2 -2,1 -3,1 -5,2 -2,1 -3,1 -5,2 -2,0 -3,1 -5,1 -2,0 -4,-1 -6,-2 -2,-1 -3,-3 -4,-5 -1,-2 -2,-4 -3,-6 -1,-2 -1,-4 -1,-6 0,-3 0,-6 1,-10 1,-3 2,-6 4,-10 1,-3 3,-6 5,-9 2,-3 4,-5 5,-8 2,-2 4,-5 7,-7 3,-2 5,-4 8,-6 3,-2 6,-3 8,-4 3,-1 5,-2 7,-2 1,0 2,0 4,0 1,0 2,0 4,0 1,0 2,0 3,1 1,0 2,1 3,1 1,0 1,1 2,2 1,1 1,2 2,3 1,1 1,2 2,3 0,1 1,2 1,3 0,1 0,3 -1,5 0,2 -1,4 -1,6 -1,2 -1,4 -1,6 0,2 -1,4 -1,6 0,1 0,3 1,4 0,1 1,3 2,4 1,1 2,2 3,3 1,1 2,1 3,1 3,0 6,-1 8,-2 3,-1 6,-3 8,-4 3,-2 6,-4 8,-7 3,-3 6,-5 8,-8 0,0 0,0 1,-1 1,-1 1,-2 2,-2 1,-1 2,-2 3,-2 1,-1 2,-1 3,-1 1,0 2,0 3,1 0,1 1,2 1,4zm64 -4c0,1 -1,3 -2,5 -1,2 -3,4 -4,6 -2,2 -4,4 -6,7 -2,2 -4,4 -6,6 -1,1 -3,3 -5,5 -2,2 -5,4 -8,7 -3,2 -6,5 -9,8 -3,3 -6,5 -9,7 -3,2 -5,4 -7,6 -2,2 -4,3 -5,3 -3,2 -6,3 -8,5 -3,1 -5,2 -7,2 -2,0 -3,0 -4,0 -1,0 -2,-1 -3,-1 -1,-1 -1,-1 -2,-2 0,-1 -1,-1 -1,-2 0,-2 0,-3 1,-5 1,-1 2,-3 3,-4 1,-1 3,-2 5,-3 2,-1 4,-2 7,-3 2,-1 3,-1 5,-2 1,-1 3,-1 4,-2 1,-1 2,-2 2,-3 1,-1 1,-2 1,-4 0,0 0,-1 -1,-2 0,-1 -1,-2 -2,-3 -1,-1 -2,-3 -2,-4 -1,-1 -2,-3 -3,-4 -1,-1 -2,-3 -2,-4 -1,-1 -1,-2 -2,-3 -2,-4 -3,-7 -3,-11 0,-2 0,-3 0,-5 0,-2 1,-3 1,-5 1,-2 2,-4 3,-6 1,-2 3,-4 5,-6 2,-2 3,-3 5,-4 2,-1 3,-2 5,-2 2,0 3,0 4,0 1,0 2,1 3,1 1,1 1,1 1,2 0,1 0,2 0,4 0,1 0,2 -1,3 -1,1 -1,2 -2,3 -1,1 -2,2 -3,3 -1,1 -2,2 -2,2 -1,1 -2,2 -3,3 -1,1 -2,1 -2,2 0,3 1,6 2,8 1,1 2,3 3,5 1,2 2,4 3,6 1,2 2,4 3,5 1,2 2,3 2,4 1,0 2,-1 3,-2 1,-1 3,-2 5,-3 2,-1 4,-3 6,-4 2,-2 4,-3 6,-5 2,-2 4,-3 6,-5 2,-2 4,-3 5,-5 1,-1 2,-2 3,-3 1,-1 2,-2 2,-2 1,-1 1,-1 2,-1 0,0 1,0 2,0 1,0 1,0 2,1 0,0 1,1 1,2 0,1 0,1 0,2 0,0 0,1 0,1z"/>
    <path class="fil1" d="M2801 494c0,1 0,3 0,4 0,2 0,4 0,6 0,2 0,4 -1,6 0,2 0,4 0,5 0,3 0,6 -1,10 0,3 -1,7 -1,10 -1,3 -1,7 -2,10 -1,3 -1,6 -2,9 -1,2 -1,5 -2,7 -1,2 -2,5 -3,7 -1,2 -2,5 -3,7 -1,2 -2,4 -3,6 -5,8 -12,12 -22,12 -6,0 -12,-1 -18,-3 -2,-1 -4,-2 -6,-3 -2,-1 -4,-3 -6,-4 -2,-1 -3,-3 -4,-4 -1,-1 -2,-3 -2,-4 0,-1 0,-2 0,-3 0,-1 0,-2 1,-2 0,-1 1,-1 2,-2 1,0 2,-1 3,-1 1,0 1,0 2,0 1,0 1,1 2,1 2,2 4,4 6,5 2,1 4,2 6,3 2,1 4,2 7,2 2,0 5,1 8,1 2,0 3,0 5,-1 1,-1 3,-2 4,-4 1,-2 2,-4 3,-6 1,-2 2,-4 3,-7 1,-2 2,-5 2,-7 1,-2 1,-5 2,-7 1,-2 1,-5 1,-7 0,-2 1,-5 1,-8 -1,1 -3,3 -5,4 -2,1 -4,3 -6,4 -2,1 -4,3 -7,4 -2,1 -5,2 -7,3 -2,1 -4,2 -6,2 -2,1 -4,1 -6,1 -3,0 -5,-1 -7,-2 -2,-1 -4,-3 -5,-4 -1,-2 -2,-4 -3,-6 -1,-2 -1,-5 -1,-7 0,-2 0,-3 0,-5 0,-2 1,-4 1,-6 0,-2 1,-4 1,-6 0,-2 1,-4 1,-5 0,0 0,-1 1,-2 0,-1 1,-2 1,-4 0,-1 1,-3 1,-4 0,-1 1,-2 1,-2 1,-2 1,-3 2,-5 1,-1 1,-2 2,-3 1,-1 2,-2 3,-2 1,0 3,-1 5,-1 1,0 2,0 3,1 1,1 2,1 2,3 1,1 1,2 1,3 0,1 0,2 0,3 0,0 0,1 -1,2 -1,1 -1,3 -2,4 -1,1 -1,3 -2,4 -1,1 -1,2 -1,2 -1,4 -3,7 -4,9 -1,3 -1,6 -1,8 0,1 0,3 0,4 0,1 1,2 1,3 0,1 1,2 1,2 1,0 1,1 2,1 2,0 3,0 6,-1 2,-1 4,-1 7,-3 2,-1 5,-2 7,-4 2,-1 5,-3 6,-5 2,-2 4,-4 5,-6 1,-2 2,-4 3,-6 0,0 0,-1 0,-2 0,-1 0,-2 0,-4 0,-1 0,-3 0,-4 0,-2 0,-3 0,-4 0,-1 0,-3 0,-4 0,-1 0,-2 0,-3 1,-3 2,-5 3,-6 1,-1 3,-2 5,-2 2,0 3,0 4,1 1,0 2,1 3,2 1,1 1,2 1,3 0,1 0,3 0,5zm36 47c0,1 0,3 -1,5 0,1 -1,2 -2,3 -1,1 -2,2 -4,4 -2,1 -3,2 -4,3 -1,1 -2,1 -3,1 -2,0 -3,0 -4,-1 -1,0 -2,-1 -3,-2 -1,-1 -1,-2 -1,-3 0,-1 0,-3 0,-5 0,-1 0,-2 0,-3 0,-1 0,-2 0,-2 0,-3 5,-5 13,-5 2,0 3,0 5,1 1,0 2,1 3,2 1,1 1,2 1,4zm37 0c0,1 0,3 -1,5 0,1 -1,2 -2,3 -1,1 -2,2 -4,4 -2,1 -3,2 -4,3 -1,1 -2,1 -3,1 -2,0 -3,0 -4,-1 -1,0 -2,-1 -3,-2 -1,-1 -1,-2 -1,-3 0,-1 0,-3 0,-5 0,-1 0,-2 0,-3 0,-1 0,-2 0,-2 0,-3 5,-5 13,-5 2,0 3,0 5,1 1,0 2,1 3,2 1,1 1,2 1,4zm37 0c0,1 0,3 -1,5 0,1 -1,2 -2,3 -1,1 -2,2 -4,4 -2,1 -3,2 -4,3 -1,1 -2,1 -3,1 -2,0 -3,0 -4,-1 -1,0 -2,-1 -3,-2 -1,-1 -1,-2 -1,-3 0,-1 0,-3 0,-5 0,-1 0,-2 0,-3 0,-1 0,-2 0,-2 0,-3 5,-5 13,-5 2,0 3,0 5,1 1,0 2,1 3,2 1,1 1,2 1,4z"/>
   </g>
  </g>
 </g>
</svg>
